<?xml version="1.0" encoding="iso-8859-1"?>
<!-- Generator: Adobe Illustrator 16.0.0, SVG Export Plug-In . SVG Version: 6.00 Build 0)  -->
<!DOCTYPE svg PUBLIC "-//W3C//DTD SVG 1.1//EN" "http://www.w3.org/Graphics/SVG/1.1/DTD/svg11.dtd">
<svg version="1.1" id="Capa_1" xmlns="http://www.w3.org/2000/svg" xmlns:xlink="http://www.w3.org/1999/xlink" x="0px" y="0px"
	 width="168.967px" height="168.968px" viewBox="0 0 168.967 168.968" style="enable-background:new 0 0 168.967 168.968;"
	 xml:space="preserve">
<g>
	<path d="M124.733,158.172c-0.146-0.244-0.378-0.414-0.646-0.512c-6.241-2.07-10.431-5.383-12.452-9.864
		c-3.112-6.887,0-14.346,0.055-14.468c10.211-28.034,2.765-54.13,2.728-54.179c-0.779-7.258,2.016-11.566,2.125-11.74
		c12.854-25.635-7.167-65.714-8.031-67.41l-2.149,1.077c0.061,0.119,1.559,3.154,3.482,7.932H59.119
		c1.912-4.789,3.416-7.831,3.471-7.932L60.446,0c-0.861,1.689-20.889,41.769-7.937,67.528c0.024,0.043,2.819,4.345,2.07,11.408
		c-0.076,0.256-7.514,26.339,2.719,54.434c0.03,0.08,3.136,7.478,0.03,14.401c-2.016,4.493-6.205,7.806-12.458,9.876
		c-0.262,0.11-0.494,0.269-0.643,0.512c-0.298,0.475-2.856,4.75-1.44,7.916c0.463,1.035,1.541,2.351,4.059,2.801
		c0.268,0.049,6.543,1.182,14.492-8.232c0.648-0.401,3.852-2.204,10.132-3.397c0.204-0.036,2.058-0.365,3.118-2.302
		c1.178-2.155,0.822-5.346-1.123-9.561c-0.006-0.023-0.972-1.711-0.911-4.932c0.07-3.397,0.35-4.518,0.511-4.884
		c0.743-1.698,10.687-42.404,2.57-53.027c-0.012-0.012-1.041-1.79,0.737-5.967c0.274-0.381,5.565-7.938,8.104-21.468
		c2.539,13.524,7.807,21.057,7.989,21.251c1.875,4.333,0.901,6.123,0.907,6.123c-8.093,10.604,1.784,51.365,2.527,53.101
		c0.158,0.371,0.438,1.461,0.505,4.871c0.062,3.221-0.907,4.908-0.974,5.048c-1.882,4.099-2.235,7.295-1.06,9.469
		c1.06,1.942,2.916,2.259,3.062,2.283c6.314,1.206,9.529,2.99,10.188,3.397c6.308,7.479,11.557,8.318,13.578,8.318
		c0.524,0,0.835-0.061,0.896-0.073c2.545-0.45,3.635-1.778,4.086-2.813C127.594,162.909,125.031,158.646,124.733,158.172z
		 M110.807,11.429c0.938,2.47,1.942,5.325,2.898,8.391l-29.24,23.793L56.02,21.848h15.451c0.661,0,1.197-0.542,1.197-1.203
		s-0.536-1.2-1.197-1.2H55.426c0.28-0.916,0.582-1.787,0.874-2.655c0.055,0,0.094,0.061,0.155,0.061h26.531
		c0.663,0,1.199-0.548,1.199-1.203s-0.536-1.203-1.199-1.203H57.104c0.368-1.023,0.737-2.058,1.093-2.993h52.611V11.429z
		 M74.302,75.401c-2.469,5.7-0.825,8.233-0.612,8.531c7.133,9.341-2.125,48.902-2.813,50.668c-0.287,0.651-0.637,1.93-0.71,5.809
		c-0.076,3.939,1.179,6.096,1.19,6.096c1.489,3.245,1.903,5.846,1.16,7.258c-0.493,0.932-1.361,1.121-1.428,1.121
		c-7.663,1.473-11.067,3.763-11.216,3.86c-0.088,0.061-0.17,0.134-0.244,0.207c-6.996,8.391-12.26,7.599-12.321,7.587
		c-1.23-0.219-1.988-0.682-2.314-1.425c-0.685-1.547,0.399-4.092,1.072-5.315c6.68-2.314,11.207-6.035,13.463-11.04
		c3.535-7.88,0.131-15.984,0.006-16.265c-9.925-27.267-2.719-52.622-2.6-53.082c0.892-8.187-2.296-13.019-2.344-13.095
		c-6.354-12.638-4.071-29.429-0.362-42.831l28.994,22.213C81.99,64.252,74.488,75.079,74.302,75.401z M123.984,165.101
		c-0.329,0.743-1.09,1.206-2.332,1.438c-0.049,0-5.316,0.804-12.312-7.575c-0.067-0.085-0.146-0.158-0.25-0.219
		c-0.134-0.098-3.55-2.388-11.265-3.86c-0.006,0-0.864-0.171-1.357-1.072c-0.773-1.425-0.372-4.019,1.077-7.197
		c0.055-0.085,1.327-2.229,1.248-6.199c-0.066-3.908-0.414-5.163-0.7-5.771c-0.718-1.863-10.071-41.188-2.801-50.723
		c0.195-0.274,1.833-2.807-0.755-8.726c-0.073-0.109-7.569-10.936-8.805-29.505l28.674-23.349
		c3.915,13.566,6.552,30.933,0.055,43.869c-0.134,0.207-3.318,5.039-2.399,13.421c0.079,0.256,7.295,25.583-2.618,52.808
		c-0.14,0.359-3.55,8.465-0.019,16.332c2.247,5.023,6.777,8.731,13.463,11.045C123.557,160.997,124.66,163.591,123.984,165.101z
		 M66.444,75.907c-0.411,0-0.816-0.219-1.042-0.606c-12.738-21.921-4.481-34.76-4.134-35.29c0.375-0.576,1.111-0.7,1.666-0.344
		c0.548,0.375,0.706,1.118,0.344,1.671c-0.082,0.125-7.733,12.221,4.208,32.76c0.332,0.572,0.137,1.309-0.435,1.647
		C66.861,75.853,66.664,75.907,66.444,75.907z M102.507,75.74c-0.578-0.338-0.773-1.075-0.438-1.647
		c11.94-20.539,4.287-32.635,4.214-32.76c-0.365-0.554-0.213-1.297,0.341-1.672c0.561-0.362,1.291-0.219,1.668,0.344
		c0.359,0.53,8.61,13.381-4.128,35.29c-0.22,0.387-0.627,0.606-1.041,0.606C102.897,75.907,102.69,75.853,102.507,75.74z
		 M105.545,122.16c0.323,0.597,0.116,1.315-0.463,1.645c-0.188,0.104-0.39,0.146-0.59,0.146c-0.414,0-0.828-0.219-1.048-0.621
		c-10.26-18.462-3.245-28.875-2.94-29.301c0.383-0.561,1.132-0.657,1.674-0.305c0.536,0.384,0.67,1.133,0.311,1.681
		C102.416,95.502,96.065,105.11,105.545,122.16z M70.561,94.028c0.298,0.426,7.319,10.839-2.938,29.301
		c-0.226,0.384-0.63,0.621-1.047,0.621c-0.198,0-0.399-0.061-0.579-0.146c-0.582-0.329-0.792-1.048-0.475-1.645
		c9.483-17.05,3.13-26.658,3.069-26.756c-0.375-0.548-0.238-1.29,0.304-1.681C69.425,93.371,70.174,93.468,70.561,94.028z"/>
</g>
<g>
</g>
<g>
</g>
<g>
</g>
<g>
</g>
<g>
</g>
<g>
</g>
<g>
</g>
<g>
</g>
<g>
</g>
<g>
</g>
<g>
</g>
<g>
</g>
<g>
</g>
<g>
</g>
<g>
</g>
</svg>
